# xmcd
# 
# Track frame offsets:
#     150
#     37300
#     64087
#     87676
#     110312
#     135222
#     159646
# 
# Disc length: 2361
# 
# Revision: 0
# Processed by: cddbd v1.5.2PL0 Copyright (c) Steve Scherf et al.
# Submitted via: fre:ac v1.0.17
# 
DISCID=5c093707
DTITLE=Lee Ritenour - The Captain's Journey
DYEAR=0
DGENRE=
TTITLE0=The Captain's Journey
TTITLE1=Morning Glory
TTITLE2=Sugarloaf Express
TTITLE3=Matchmakers
TTITLE4=What Do You Want
TTITLE5=That's Enough for Me
TTITLE6=Etude
EXTD=
EXTT0=
EXTT1=
EXTT2=
EXTT3=
EXTT4=
EXTT5=
EXTT6=
PLAYORDER=
